<svg id="visual" viewBox="0 0 960 540" width="960" height="540" xmlns="http://www.w3.org/2000/svg" xmlns:xlink="http://www.w3.org/1999/xlink" version="1.1"><path d="M0 120L14.5 112.8C29 105.7 58 91.3 87.2 97.7C116.3 104 145.7 131 174.8 133.7C204 136.3 233 114.7 262 102.8C291 91 320 89 349 116C378 143 407 199 436.2 211.7C465.3 224.3 494.7 193.7 523.8 186.5C553 179.3 582 195.7 611 185.8C640 176 669 140 698 140C727 140 756 176 785.2 185C814.3 194 843.7 176 872.8 174.2C902 172.3 931 186.7 945.5 193.8L960 201L960 0L945.5 0C931 0 902 0 872.8 0C843.7 0 814.3 0 785.2 0C756 0 727 0 698 0C669 0 640 0 611 0C582 0 553 0 523.8 0C494.7 0 465.3 0 436.2 0C407 0 378 0 349 0C320 0 291 0 262 0C233 0 204 0 174.8 0C145.7 0 116.3 0 87.2 0C58 0 29 0 14.5 0L0 0Z" fill="#a2df9b"></path><path d="M0 212L14.5 201.2C29 190.3 58 168.7 87.2 165.8C116.3 163 145.7 179 174.8 181.7C204 184.3 233 173.7 262 167.5C291 161.3 320 159.7 349 181.3C378 203 407 248 436.2 257C465.3 266 494.7 239 523.8 238C553 237 582 262 611 253.8C640 245.7 669 204.3 698 200.8C727 197.3 756 231.7 785.2 240.7C814.3 249.7 843.7 233.3 872.8 234.2C902 235 931 253 945.5 262L960 271L960 199L945.5 191.8C931 184.7 902 170.3 872.8 172.2C843.7 174 814.3 192 785.2 183C756 174 727 138 698 138C669 138 640 174 611 183.8C582 193.7 553 177.3 523.8 184.5C494.7 191.7 465.3 222.3 436.2 209.7C407 197 378 141 349 114C320 87 291 89 262 100.8C233 112.7 204 134.3 174.8 131.7C145.7 129 116.3 102 87.2 95.7C58 89.3 29 103.7 14.5 110.8L0 118Z" fill="#8cd885"></path><path d="M0 276L14.5 261.7C29 247.3 58 218.7 87.2 224.2C116.3 229.7 145.7 269.3 174.8 273C204 276.7 233 244.3 262 225.3C291 206.3 320 200.7 349 222.2C378 243.7 407 292.3 436.2 314C465.3 335.7 494.7 330.3 523.8 330.3C553 330.3 582 335.7 611 324C640 312.3 669 283.7 698 287.3C727 291 756 327 785.2 329.7C814.3 332.3 843.7 301.7 872.8 292.7C902 283.7 931 296.3 945.5 302.7L960 309L960 269L945.5 260C931 251 902 233 872.8 232.2C843.7 231.3 814.3 247.7 785.2 238.7C756 229.7 727 195.3 698 198.8C669 202.3 640 243.7 611 251.8C582 260 553 235 523.8 236C494.7 237 465.3 264 436.2 255C407 246 378 201 349 179.3C320 157.7 291 159.3 262 165.5C233 171.7 204 182.3 174.8 179.7C145.7 177 116.3 161 87.2 163.8C58 166.7 29 188.3 14.5 199.2L0 210Z" fill="#74d06e"></path><path d="M0 395L14.5 384.2C29 373.3 58 351.7 87.2 357.2C116.3 362.7 145.7 395.3 174.8 389.2C204 383 233 338 262 325.3C291 312.7 320 332.3 349 353.8C378 375.3 407 398.7 436.2 408.5C465.3 418.3 494.7 414.7 523.8 413.8C553 413 582 415 611 410.5C640 406 669 395 698 396.8C727 398.7 756 413.3 785.2 414.3C814.3 415.3 843.7 402.7 872.8 404.3C902 406 931 422 945.5 430L960 438L960 307L945.5 300.7C931 294.3 902 281.7 872.8 290.7C843.7 299.7 814.3 330.3 785.2 327.7C756 325 727 289 698 285.3C669 281.7 640 310.3 611 322C582 333.7 553 328.3 523.8 328.3C494.7 328.3 465.3 333.7 436.2 312C407 290.3 378 241.7 349 220.2C320 198.7 291 204.3 262 223.3C233 242.3 204 274.7 174.8 271C145.7 267.3 116.3 227.7 87.2 222.2C58 216.7 29 245.3 14.5 259.7L0 274Z" fill="#63b55d"></path><path d="M0 541L14.5 541C29 541 58 541 87.2 541C116.3 541 145.7 541 174.8 541C204 541 233 541 262 541C291 541 320 541 349 541C378 541 407 541 436.2 541C465.3 541 494.7 541 523.8 541C553 541 582 541 611 541C640 541 669 541 698 541C727 541 756 541 785.2 541C814.3 541 843.7 541 872.8 541C902 541 931 541 945.5 541L960 541L960 436L945.5 428C931 420 902 404 872.8 402.3C843.7 400.7 814.3 413.3 785.2 412.3C756 411.3 727 396.7 698 394.8C669 393 640 404 611 408.5C582 413 553 411 523.8 411.8C494.7 412.7 465.3 416.3 436.2 406.5C407 396.7 378 373.3 349 351.8C320 330.3 291 310.7 262 323.3C233 336 204 381 174.8 387.2C145.7 393.3 116.3 360.7 87.2 355.2C58 349.7 29 371.3 14.5 382.2L0 393Z" fill="#539b4d"></path></svg>